<?xml version="1.0" encoding="utf-8"?>
<!-- Generator: Adobe Illustrator 21.1.0, SVG Export Plug-In . SVG Version: 6.00 Build 0)  -->
<svg version="1.1" id="Capa_1" xmlns="http://www.w3.org/2000/svg" xmlns:xlink="http://www.w3.org/1999/xlink" x="0px" y="0px"
	 viewBox="0 0 1920 1080" style="enable-background:new 0 0 1920 1080;" xml:space="preserve">
<style type="text/css">
	.st0{fill:#2454AD;}
	.st1{opacity:0.63;}
	.st2{opacity:0.92;}
	.st3{fill:none;}
	.st4{fill:#56D6FA;}
	.st5{fill:#FFFFFF;}
	.st6{fill:#FFFFFF;stroke:#2454AD;stroke-width:2.3656;stroke-miterlimit:10;}
	.st7{fill:#FFFFFF;stroke:#2454AD;stroke-width:2.3529;stroke-miterlimit:10;}
	.st8{font-family:'TwCenMT-Bold';}
	.st9{font-size:84.9781px;}
</style>
<rect x="0.3" y="756.9" class="st0" width="1920" height="181.5"/>
<g class="st1">
	<g class="st2">
		<path class="st3" d="M332.4,399.2c-25-17.6-31-52.2-13.4-77.2c17.6-25,52.2-31,77.2-13.3c25,17.6,31,52.2,13.3,77.2
			C392,410.9,357.4,416.8,332.4,399.2z"/>
		<path class="st3" d="M558.8,382.6c-9.5-17.8-3-40.9,14.4-51.1c18.6-10.9,42.4-4.3,52.8,14.4c10.3,18.5,3.7,41.8-14.8,52.2
			C592.6,408.5,568.9,401.6,558.8,382.6z"/>
		<path class="st4" d="M475.5,367.8c0.6-4.8,0.8-9.6,0.8-14.3l21.8-10.5c-0.9-10.7-3.1-21.3-6.5-31.6l-24.2-1
			c-1.9-4.4-4-8.7-6.4-12.8l13.7-20c-6-8.7-13.2-16.8-21.4-24.1l-21.5,11.2c-1-0.7-1.9-1.5-2.9-2.2c-2.9-2.1-6-4-9-5.7l1.8-24.1
			c-9.9-4.7-20.1-8.1-30.6-10.2l-13,20.4c-4.8-0.6-9.6-0.9-14.3-0.8l-10.5-21.8c-10.7,0.9-21.3,3.1-31.6,6.5l-1,24.2
			c-4.4,1.9-8.7,4-12.8,6.4l-20-13.7c-8.7,6-16.8,13.2-24.1,21.4l11.2,21.5c-0.8,1-1.5,1.9-2.2,3c-2.1,2.9-3.9,5.9-5.7,9l-24.1-1.8
			c-4.7,9.9-8.1,20.1-10.2,30.6l20.4,13c-0.6,4.8-0.8,9.6-0.8,14.3L230.5,365c0.9,10.7,3.1,21.3,6.5,31.6l24.2,1
			c1.8,4.4,4,8.7,6.4,12.8l-13.7,20c6,8.7,13.2,16.8,21.4,24.1l21.5-11.2c1,0.7,2,1.5,3,2.2c2.9,2.1,5.9,4,9,5.7l-1.8,24.1
			c9.9,4.7,20.2,8.1,30.6,10.2l13-20.4c4.8,0.6,9.6,0.8,14.3,0.8l10.5,21.8c10.7-0.9,21.3-3.1,31.6-6.5l1-24.2
			c4.4-1.9,8.7-4,12.8-6.4l20,13.7c8.7-6,16.8-13.2,24.1-21.4l-11.2-21.5c0.7-1,1.5-2,2.2-3c2.1-2.9,4-5.9,5.7-9l24.1,1.8
			c4.7-9.9,8.1-20.1,10.2-30.6L475.5,367.8z M432.6,393.7c-21.9,37.6-70.3,50.4-107.9,28.5c-37.6-21.9-50.4-70.3-28.5-107.9
			c21.9-37.6,70.3-50.4,107.9-28.5C441.7,307.6,454.4,356,432.6,393.7z"/>
		<path class="st4" d="M327.5,417.3c34.9,20.3,79.9,8.4,100.2-26.5c20.3-34.9,8.5-79.9-26.5-100.2c-34.9-20.3-79.9-8.5-100.2,26.5
			C280.7,352,292.5,397,327.5,417.3z M332.4,399.2c-25-17.6-31-52.2-13.4-77.2c17.6-25,52.2-31,77.2-13.3c25,17.6,31,52.2,13.3,77.2
			C392,410.9,357.4,416.8,332.4,399.2z"/>
		<path class="st0" d="M562.6,418.6c30.3,16.8,68.6,5.8,85.4-24.5c16.8-30.3,5.8-68.6-24.5-85.4c-30.3-16.8-68.6-5.8-85.4,24.5
			C521.3,363.5,532.3,401.8,562.6,418.6z M558.8,382.6c-9.5-17.8-3-40.9,14.4-51.1c18.6-10.9,42.4-4.3,52.8,14.4
			c10.3,18.5,3.7,41.8-14.8,52.2C592.6,408.5,568.9,401.6,558.8,382.6z"/>
		<path class="st0" d="M672.8,393.4c1.6-4.3,2.9-8.8,3.7-13.3l17.2-4.1c0.9-7.2,1-14.6,0.3-22l-17-4.5c-0.8-4.5-1.9-9-3.4-13.4
			l12.8-12c-1.4-3.4-3-6.7-4.8-9.9c-1.8-3.2-3.8-6.4-5.9-9.3l-17,4.6c-3-3.6-6.2-6.9-9.6-9.9l5.1-16.8c-5.9-4.5-12.3-8.2-18.9-11.3
			l-12.4,12.5c-4.3-1.6-8.7-2.9-13.3-3.8l-4.1-17.1c-7.2-0.9-14.6-1-22-0.3l-4.5,17c-4.5,0.8-9,1.9-13.4,3.4l-12.1-12.8
			c-3.3,1.4-6.7,3-9.9,4.9c-3.2,1.8-6.3,3.8-9.3,5.9l4.6,17c-3.6,3-6.9,6.2-9.9,9.7l-16.8-5.1c-4.5,5.9-8.2,12.3-11.3,18.9
			l12.5,12.4c-1.6,4.3-2.9,8.8-3.8,13.3l-17.2,4c-0.9,7.3-1,14.6-0.3,22l17,4.5c0.8,4.5,1.9,9,3.4,13.4l-12.8,12.1
			c1.4,3.3,3,6.7,4.8,9.9c1.8,3.3,3.8,6.4,5.9,9.3l17-4.6c3,3.6,6.2,6.9,9.6,9.9l-5,16.8c5.9,4.5,12.2,8.2,18.9,11.3l12.4-12.5
			c4.3,1.6,8.8,2.9,13.3,3.7l4,17.2c7.3,0.9,14.7,1,22,0.3l4.5-17c4.5-0.8,9-1.9,13.4-3.4l12,12.8c3.4-1.4,6.7-3,9.9-4.8
			c3.3-1.8,6.4-3.8,9.3-5.9l-4.6-17c3.6-3,6.9-6.2,10-9.6l16.8,5.1c4.5-5.9,8.2-12.3,11.3-18.9L672.8,393.4z M650.4,395.5
			c-17.5,31.6-57.5,43.1-89.1,25.5c-31.6-17.5-43.1-57.5-25.5-89.1c17.5-31.6,57.5-43.1,89.1-25.5
			C656.4,323.9,667.9,363.8,650.4,395.5z"/>
		<path class="st5" d="M324.6,422.2c37.6,21.9,86,9.1,107.9-28.5c21.9-37.6,9.1-86-28.5-107.9c-37.6-21.9-86-9.1-107.9,28.5
			C274.2,351.9,287,400.3,324.6,422.2z M327.5,417.3C292.5,397,280.7,352,301,317.1c20.3-34.9,65.3-46.8,100.2-26.5
			c34.9,20.3,46.8,65.3,26.5,100.2C407.3,425.7,362.4,437.6,327.5,417.3z"/>
		<path class="st5" d="M561.3,421c31.6,17.5,71.6,6.1,89.1-25.5c17.5-31.6,6.1-71.6-25.5-89.1c-31.6-17.5-71.6-6.1-89.1,25.5
			C518.2,363.5,529.6,403.5,561.3,421z M562.6,418.6c-30.3-16.8-41.3-55.1-24.5-85.4c16.8-30.3,55.1-41.3,85.4-24.5
			c30.3,16.8,41.3,55.1,24.5,85.4C631.2,424.4,592.9,435.4,562.6,418.6z"/>
	</g>
</g>
<g class="st1">
	<g class="st2">
		<path class="st3" d="M1530.5,399.2c25-17.6,31-52.2,13.4-77.2c-17.6-25-52.2-31-77.2-13.3c-25,17.6-31,52.2-13.3,77.2
			C1470.9,410.9,1505.5,416.8,1530.5,399.2z"/>
		<path class="st3" d="M1304.1,382.6c9.5-17.8,3-40.9-14.4-51.1c-18.6-10.9-42.4-4.3-52.8,14.4c-10.3,18.5-3.7,41.8,14.8,52.2
			C1270.3,408.5,1294,401.6,1304.1,382.6z"/>
		<path class="st4" d="M1367,380.7c2.1,10.4,5.5,20.7,10.2,30.6l24.1-1.8c1.8,3.1,3.7,6.1,5.7,9c0.7,1,1.5,2,2.2,3l-11.2,21.5
			c7.2,8.2,15.3,15.4,24.1,21.4l20-13.7c4.1,2.4,8.4,4.6,12.8,6.4l1,24.2c10.2,3.4,20.8,5.6,31.6,6.5l10.5-21.8
			c4.8,0,9.6-0.2,14.3-0.8l13,20.4c10.4-2.1,20.7-5.5,30.6-10.2l-1.8-24.1c3.1-1.7,6-3.6,9-5.7c1-0.7,2-1.5,3-2.2l21.5,11.2
			c8.2-7.3,15.4-15.4,21.4-24.1l-13.7-20c2.4-4.2,4.6-8.4,6.4-12.8l24.2-1c3.4-10.2,5.6-20.8,6.5-31.6l-21.8-10.5
			c0-4.8-0.2-9.6-0.8-14.3l20.4-13c-2.1-10.4-5.5-20.7-10.2-30.6l-24.1,1.8c-1.8-3.1-3.6-6.1-5.7-9c-0.7-1-1.5-2-2.2-3l11.2-21.5
			c-7.3-8.2-15.3-15.4-24.1-21.4l-20,13.7c-4.2-2.4-8.4-4.6-12.8-6.4l-1-24.2c-10.2-3.4-20.8-5.6-31.6-6.5l-10.5,21.8
			c-4.8,0-9.6,0.2-14.3,0.8l-13-20.4c-10.4,2.1-20.7,5.5-30.6,10.2l1.8,24.1c-3,1.7-6.1,3.6-9,5.7c-1,0.7-2,1.5-2.9,2.2l-21.5-11.2
			c-8.2,7.3-15.4,15.4-21.4,24.1l13.7,20c-2.4,4.2-4.6,8.4-6.4,12.8l-24.2,1c-3.4,10.2-5.6,20.8-6.5,31.6l21.8,10.5
			c0,4.8,0.3,9.6,0.8,14.3L1367,380.7z M1458.9,285.7c37.6-21.9,86-9.1,107.9,28.5c21.9,37.6,9.1,86-28.5,107.9
			c-37.6,21.9-86,9.1-107.9-28.5C1408.5,356,1421.3,307.6,1458.9,285.7z"/>
		<path class="st4" d="M1561.9,317.1c-20.3-34.9-65.3-46.8-100.2-26.5c-34.9,20.3-46.8,65.3-26.5,100.2
			c20.3,34.9,65.3,46.8,100.2,26.5C1570.4,397,1582.2,352,1561.9,317.1z M1453.3,385.9c-17.6-25-11.7-59.6,13.3-77.2
			c25-17.6,59.5-11.6,77.2,13.3c17.6,25,11.6,59.6-13.4,77.2C1505.5,416.8,1470.9,410.9,1453.3,385.9z"/>
		<path class="st0" d="M1324.8,333.2c-16.8-30.3-55.1-41.3-85.4-24.5c-30.3,16.8-41.3,55.1-24.5,85.4c16.8,30.3,55.1,41.3,85.4,24.5
			C1330.6,401.8,1341.6,363.5,1324.8,333.2z M1251.6,398.1c-18.5-10.3-25.1-33.7-14.8-52.2c10.5-18.7,34.3-25.2,52.8-14.4
			c17.4,10.2,24,33.2,14.4,51.1C1294,401.6,1270.3,408.5,1251.6,398.1z"/>
		<path class="st0" d="M1177.6,405.9c3.1,6.7,6.8,13,11.3,18.9l16.8-5.1c3,3.4,6.4,6.6,10,9.6l-4.6,17c3,2.1,6.1,4.1,9.3,5.9
			c3.2,1.8,6.5,3.4,9.9,4.8l12-12.8c4.4,1.5,8.9,2.7,13.4,3.4l4.5,17c7.4,0.7,14.8,0.6,22-0.3l4-17.2c4.5-0.9,9-2.1,13.3-3.7
			l12.4,12.5c6.7-3.1,13-6.8,18.9-11.3l-5-16.8c3.4-3,6.6-6.3,9.6-9.9l17,4.6c2.1-2.9,4.1-6.1,5.9-9.3c1.8-3.2,3.4-6.5,4.8-9.9
			l-12.8-12.1c1.5-4.4,2.7-8.9,3.4-13.4l17-4.5c0.7-7.4,0.6-14.7-0.3-22l-17.2-4c-0.9-4.5-2.2-9-3.8-13.3l12.5-12.4
			c-3-6.7-6.8-13-11.3-18.9l-16.8,5.1c-3-3.5-6.3-6.7-9.9-9.7l4.6-17c-3-2.1-6.1-4.1-9.3-5.9c-3.3-1.8-6.6-3.4-9.9-4.9l-12.1,12.8
			c-4.4-1.5-8.9-2.6-13.4-3.4l-4.5-17c-7.4-0.7-14.7-0.6-22,0.3l-4.1,17.1c-4.5,0.9-8.9,2.1-13.3,3.8l-12.4-12.5
			c-6.6,3.1-13,6.8-18.9,11.3l5.1,16.8c-3.5,3-6.7,6.3-9.6,9.9l-17-4.6c-2.1,2.9-4.1,6.1-5.9,9.3c-1.8,3.2-3.4,6.5-4.8,9.9l12.8,12
			c-1.5,4.4-2.6,8.9-3.4,13.4l-17,4.5c-0.7,7.4-0.6,14.8,0.3,22l17.2,4.1c0.9,4.5,2.1,8.9,3.7,13.3L1177.6,405.9z M1238.1,306.4
			c31.6-17.5,71.6-6.1,89.1,25.5c17.5,31.6,6.1,71.6-25.5,89.1c-31.6,17.5-71.6,6.1-89.1-25.5C1195,363.8,1206.5,323.9,1238.1,306.4
			z"/>
		<path class="st5" d="M1566.8,314.2c-21.9-37.6-70.3-50.4-107.9-28.5c-37.6,21.9-50.4,70.3-28.5,107.9
			c21.9,37.6,70.3,50.4,107.9,28.5C1575.9,400.3,1588.7,351.9,1566.8,314.2z M1435.2,390.8c-20.3-34.9-8.5-79.9,26.5-100.2
			c34.9-20.3,79.9-8.5,100.2,26.5c20.3,34.9,8.5,79.9-26.5,100.2C1500.5,437.6,1455.6,425.7,1435.2,390.8z"/>
		<path class="st5" d="M1327.2,331.9c-17.5-31.6-57.5-43.1-89.1-25.5c-31.6,17.5-43.1,57.5-25.5,89.1c17.5,31.6,57.5,43.1,89.1,25.5
			C1333.3,403.5,1344.7,363.5,1327.2,331.9z M1214.9,394.1c-16.8-30.3-5.8-68.6,24.5-85.4c30.3-16.8,68.6-5.8,85.4,24.5
			c16.8,30.3,5.8,68.6-24.5,85.4C1270,435.4,1231.7,424.4,1214.9,394.1z"/>
	</g>
</g>
<g>
	<g>
		<polygon class="st4" points="1024.4,146.6 1162.8,311.5 1024.4,489.1 		"/>
		<polygon class="st0" points="976,146.6 1114.5,311.5 976,489.1 		"/>
		<polygon class="st4" points="925.7,146.6 1064.1,311.5 925.7,489.1 		"/>
	</g>
	<g>
		<g>
			<path class="st0" d="M749.3,279c0,0-6,6.6-5.8,11.9c0.2,5.3,0,38.3,0,38.3s-1.7,10.1-4.7,14c8.1,0,27.1,0,27.1,0
				s-4.6-7.4-4.8-12.5s0.1-39.4,0.1-39.4s2.3-11.1,5.8-12.4C758.4,278.8,749.3,279,749.3,279z"/>
			<path class="st0" d="M835.6,302.2l1.3-23.3c0,0-26-1.5-33.5-0.1s-30.9,13.7-31.1,29.4s2.9,22.5,19,31.4
				c16.1,8.9,49.9,1.3,49.9,1.3l-0.4-22.3c0,0-0.4-10.5,2-11.2c-10.4,0.7-25.4,3.6-25.4,3.6s5.6,4.2,6,6.6s0.3,14.5,0.3,14.5
				s-32.5,4.7-32.8-20.5c-0.3-25.2,30.8-21,34.5-18.9C830.6,295.6,835.6,302.2,835.6,302.2z"/>
			<path class="st0" d="M842.8,278.3l14.2,11.1l-0.9,42.5c0,0,3.5,8.6,1.6,10.8c5.4-0.5,21.1,0.6,21.1,0.6s-5.8-8.4-6.1-10.9
				s-0.1-28.6-0.1-28.6l21.6,20.9l21.4-20.7l0.9,27.8c0,0-3.5,10.5-4.3,11c-0.7,0.5,24.9,0,24.9,0l-5.4-11.2l0.4-41.4l10.1-12.3
				l-26.7,0.5l0.6,6.7l-22.8,21.6L872.7,284l0.4-6.5L842.8,278.3z"/>
			<path class="st0" d="M938.1,343l35.1-64h14.8l22.4,51.9c0,0,5.2,9.9,9.3,12.1c-12.1,0-27.5,0-27.5,0s2.6-9.7-2.1-15.3
				c-9.3,0-22.4,0-22.4,0s-8.9,12.9-5.1,15.3C952.3,343,938.1,343,938.1,343z"/>
			<polygon class="st0" points="985.9,315.3 980,296.8 971.8,315.3 			"/>
		</g>
		<path class="st6" d="M722.9,278.8c0,0,5.1,5.6,5.3,10.9s0,38.3,0,38.3s-1.7,10.1-4.7,14c8.1,0,27.1,0,27.1,0s-4.6-7.4-4.8-12.5
			s0.1-39.4,0.1-39.4s-0.4-2.1,3.4-10.1C740.9,280.7,722.9,278.8,722.9,278.8z"/>
		<path class="st6" d="M820.8,297.6v-18.1c0,0-25.4-1.4-32.9,0s-30.8,11.7-31,27.5c-0.2,15.7,2.9,22.5,19,31.4
			c16.1,8.9,49.9,1.3,49.9,1.3l-0.4-22.3c0,0,2.2-6.9,4.7-7.7c-10.4,0.7-28.1,0.1-28.1,0.1s5.6,4.2,6,6.6s0.3,14.5,0.3,14.5
			s-32.5,4.7-32.8-20.5c-0.3-25.2,30.9-21.1,34.5-18.9C813.7,293.8,820.8,297.6,820.8,297.6z"/>
		<path class="st6" d="M828,279.6l13.7,8.6l-0.9,42.5c0,0-1.1,8.8-2.9,10.9c5.4-0.5,25.2,0,25.2,0s-5.3-7.9-5.7-10.4
			s-0.1-28.6-0.1-28.6l21.6,20.9l21.4-20.7l0.9,27.8c0,0-3.5,10.5-4.3,11s24.9,0,24.9,0l-5.4-11.2l0.4-41.4l8.7-9.9h-25.1l0.4,4.8
			L878,305.3l-20.6-22.5l0.5-3.8L828,279.6z"/>
		<path class="st6" d="M1004.3,341.8c-4.1-2.2-9.3-12.1-9.3-12.1L973.6,280h-15.5l-35,61.2c0,0,13.9,0.6,24.1,0.6
			c-3.7-2.4,5.1-15.3,5.1-15.3s13.1,0,22.4,0c4.7,5.6,2.1,15.3,2.1,15.3S992.3,341.8,1004.3,341.8z M956.5,314.1l8.2-18.5l5.9,18.5
			H956.5z"/>
	</g>
</g>
<g>
	<g>
		<path class="st0" d="M291.8,532.6h11.1v43.3h-11.1V532.6z"/>
		<path class="st0" d="M351,532.6v43.2h-13.7l-18.9-28.9v28.9h-11v-43.2h11.5l21.1,29v-29H351z"/>
		<path class="st0" d="M369.5,532.8c8.3,0,15.1,1.9,20.4,5.8c5.6,4.1,8.4,9.7,8.4,16.7c0,6.3-2.3,11.3-7,15.2
			c-5,4.1-11.9,6.1-20.7,6.1c-2,0-7-0.2-15-0.6v-42.4C362.7,533.1,367.3,532.8,369.5,532.8z M370.4,569c4.7,0,8.7-1.4,12-4.2
			c3.3-2.8,5-6.1,5-10c0-3.9-1.7-7.3-5-10.1c-3.3-2.8-7.3-4.2-12-4.2h-3.7V569H370.4z"/>
		<path class="st0" d="M442.5,532.7v25.5c0,5.1-1.9,9.5-5.7,13.1c-3.9,3.6-8.5,5.4-13.9,5.4h-0.3c-5.6,0-10.4-1.9-14.3-5.6
			c-4-3.7-5.9-8.2-5.9-13.5v-25h11.1v26.4c0,2.4,0.9,4.4,2.7,6c1.8,1.7,3.9,2.5,6.4,2.5c2.5,0,4.6-0.8,6.4-2.5
			c1.8-1.7,2.7-3.7,2.7-6v-26.4H442.5z"/>
		<path class="st0" d="M466.7,540.2c-2.6-0.8-5-0.8-7.2,0.1c-1.8,0.7-2.6,1.9-2.6,3.5c0,0.8,0.5,1.7,1.5,2.5
			c1.2,1.1,3.2,2.2,5.8,3.3c3.9,1.7,6.8,3.3,8.9,4.8c2.7,2,4.4,4.1,5,6.3c1.1,3.9,0.1,7.4-2.8,10.4c-2.3,2.3-5.4,3.8-9.4,4.3
			c-5.6,0.8-11,0.2-16.3-1.7c-1.6-0.6-3.1-1.4-4.5-2.5c-0.3-0.2-0.3-0.4-0.2-0.6c1.8-2.7,3.4-5.1,4.9-7.2c0.2-0.2,0.4-0.3,0.7-0.1
			c3.1,2,5.9,3.3,8.4,3.9c1.7,0.4,3.2,0.5,4.4,0.1c1.9-0.5,3-1.5,3.4-3.2c0.2-1,0-1.9-0.7-2.7c-0.9-1-2.4-2.1-4.4-3.1
			c-0.5-0.3-1.8-0.9-4-2c-1.6-0.8-2.9-1.5-3.9-2.1c-2.6-1.5-4.5-2.9-5.8-4.2c-2.1-2.1-3-4.6-2.8-7.5c0.2-2.8,1.6-5.2,4-7
			c2.4-1.8,5.3-2.9,8.6-3.4c5-0.7,9.6-0.3,13.9,1.1c0.7,0.2,1.3,0.5,1.9,0.8c0.3,0.1,0.3,0.3,0.3,0.5c-0.4,1.2-1.4,3.6-2.8,7.3
			C469.2,541.2,467.8,540.6,466.7,540.2z"/>
		<path class="st0" d="M518,532.6l-1.9,7.2h-11.4v36.2h-11.4v-36.2h-11.5l-1.9-7.2H518z"/>
		<path class="st0" d="M522.2,575.9v-43.2h18.3c0.6,0,1.3,0,2,0.2h0.3v0c3.6,0.5,6.6,2.1,9,4.7c2.4,2.6,3.6,5.7,3.6,9.2
			c0,2.7-0.8,5.3-2.3,7.5c-1.5,2.2-3.6,4-6.1,5.1l11,16.4H547L536.8,561h-3.6v14.9H522.2z M533.2,553.2h5.4c1.8,0,3.4-0.6,4.7-1.9
			c1.3-1.3,1.9-2.9,1.9-4.7c0-1.8-0.6-3.4-1.9-4.7c-1.3-1.3-2.9-1.9-4.7-1.9h-5.4V553.2z"/>
		<path class="st0" d="M560.2,532.6h11.1v43.3h-11.1V532.6z"/>
		<path class="st0" d="M584.6,575.3c-0.1,0.3-0.4,0.5-0.7,0.5H574c-0.3,0-0.5-0.1-0.6-0.3c-0.1-0.2-0.2-0.4-0.1-0.6l14.5-41.9
			c0.1-0.3,0.4-0.5,0.7-0.5h13.5c0.4,0,0.6,0.2,0.7,0.5l14.9,41.9c0.1,0.2,0,0.4-0.1,0.6c-0.1,0.2-0.4,0.3-0.6,0.3h-10.5
			c-0.4,0-0.6-0.2-0.7-0.5l-3.4-10.1c-0.1-0.3-0.4-0.5-0.7-0.5h-13c-0.4,0-0.6,0.2-0.7,0.5L584.6,575.3z M599.5,557.3
			c0.3,0,0.5-0.1,0.6-0.3c0.1-0.2,0.2-0.4,0.1-0.6l-2.8-10c-0.2-0.8-0.5-1.8-0.9-2.9c-0.4-1.3-0.7-2.2-0.9-2.7
			c-0.1-0.4-0.4-0.5-0.7-0.5s-0.6,0.2-0.7,0.5c-0.7,2.4-1.3,4.3-1.6,5.6l-2.7,10c-0.1,0.2,0,0.4,0.1,0.6c0.1,0.2,0.3,0.3,0.6,0.3
			H599.5z"/>
		<path class="st0" d="M674.1,573.9c-2.5,0.7-5.2,1.3-8.3,1.8c-2.6,0.5-5.4,0.7-8.4,0.7c-8.3,0-14.7-2.1-19.3-6.2
			c-4.3-3.9-6.5-9.1-6.5-15.5c0-7.2,2.6-12.8,7.9-17c4.9-4,11.3-5.9,19.1-5.9c4.8,0,9.8,0.6,15,1.9l-2.8,7c-7-1.6-12.5-2-16.5-1.1
			c-7.7,1.7-11.5,6.6-11.5,14.6c0,4.2,1.4,7.7,4.2,10.6c2.9,2.9,6.4,4.4,10.8,4.4h5.6c0,0,0.1,0,0.1,0c0,0,0.1,0,0.1,0V558h-7.6
			l-1.9-6.7h20.3V573.9z"/>
		<path class="st0" d="M709.3,532.6l-1.9,8h-17.7v6.3h17.7v8h-17.7v13h19.5v8h-30.7v-43.3H709.3z"/>
		<path class="st0" d="M756.1,532.6v43.2h-13.7l-18.9-28.9v28.9h-11v-43.2h11.5l21.1,29v-29H756.1z"/>
		<path class="st0" d="M791,532.6l-1.9,8h-17.7v6.3h17.7v8h-17.7v13H791v8h-30.7v-43.3H791z"/>
		<path class="st0" d="M796.7,575.9v-43.2H815c0.6,0,1.3,0,2,0.2h0.3v0c3.6,0.5,6.6,2.1,9,4.7c2.4,2.6,3.6,5.7,3.6,9.2
			c0,2.7-0.8,5.3-2.3,7.5c-1.5,2.2-3.6,4-6.1,5.1l11,16.4h-11.1L811.2,561h-3.6v14.9H796.7z M807.6,553.2h5.4c1.8,0,3.4-0.6,4.7-1.9
			c1.3-1.3,1.9-2.9,1.9-4.7c0-1.8-0.6-3.4-1.9-4.7c-1.3-1.3-2.9-1.9-4.7-1.9h-5.4V553.2z"/>
		<path class="st0" d="M840.9,575.3c-0.1,0.3-0.4,0.5-0.7,0.5h-9.9c-0.3,0-0.5-0.1-0.6-0.3c-0.1-0.2-0.2-0.4-0.1-0.6l14.5-41.9
			c0.1-0.3,0.4-0.5,0.7-0.5h13.5c0.4,0,0.6,0.2,0.7,0.5l14.9,41.9c0.1,0.2,0,0.4-0.1,0.6c-0.1,0.2-0.4,0.3-0.6,0.3h-10.5
			c-0.4,0-0.6-0.2-0.7-0.5l-3.4-10.1c-0.1-0.3-0.4-0.5-0.7-0.5h-13c-0.4,0-0.6,0.2-0.7,0.5L840.9,575.3z M855.8,557.3
			c0.3,0,0.5-0.1,0.6-0.3c0.1-0.2,0.2-0.4,0.1-0.6l-2.8-10c-0.2-0.8-0.5-1.8-0.9-2.9c-0.4-1.3-0.7-2.2-0.9-2.7
			c-0.1-0.4-0.4-0.5-0.7-0.5s-0.6,0.2-0.7,0.5c-0.7,2.4-1.3,4.3-1.6,5.6l-2.7,10c-0.1,0.2,0,0.4,0.1,0.6c0.1,0.2,0.3,0.3,0.6,0.3
			H855.8z"/>
		<path class="st0" d="M887.3,532.6v35.1h19.6l-1.9,8.2h-28.9v-43.3H887.3z"/>
		<path class="st0" d="M937,532.8c8.3,0,15.1,1.9,20.4,5.8c5.6,4.1,8.4,9.7,8.4,16.7c0,6.3-2.3,11.3-7,15.2
			c-5,4.1-11.9,6.1-20.7,6.1c-2,0-7-0.2-15-0.6v-42.4C930.1,533.1,934.7,532.8,937,532.8z M937.9,569c4.7,0,8.7-1.4,12-4.2
			c3.3-2.8,5-6.1,5-10c0-3.9-1.7-7.3-5-10.1c-3.3-2.8-7.3-4.2-12-4.2h-3.7V569H937.9z"/>
		<path class="st0" d="M1000,532.6l-1.9,8h-17.7v6.3h17.7v8h-17.7v13h19.5v8h-30.7v-43.3H1000z"/>
		<path class="st0" d="M1066.9,532.6v43.2h-9.9v-31.6l-9.6,31.6h-12l-9.6-31.6v31.6h-9.9v-43.2h16l9.6,31.4l9.5-31.4H1066.9z"/>
		<path class="st0" d="M1100.8,532.6l-1.9,8h-17.7v6.3h17.7v8h-17.7v13h19.5v8h-30.7v-43.3H1100.8z"/>
		<path class="st0" d="M1140.6,532.6l-1.9,7.2h-11.4v36.2h-11.4v-36.2h-11.5l-1.9-7.2H1140.6z"/>
		<path class="st0" d="M1151.3,575.3c-0.1,0.3-0.4,0.5-0.7,0.5h-9.9c-0.3,0-0.5-0.1-0.6-0.3c-0.1-0.2-0.2-0.4-0.1-0.6l14.5-41.9
			c0.1-0.3,0.4-0.5,0.7-0.5h13.5c0.4,0,0.6,0.2,0.7,0.5l14.9,41.9c0.1,0.2,0,0.4-0.1,0.6c-0.1,0.2-0.4,0.3-0.6,0.3h-10.5
			c-0.4,0-0.6-0.2-0.7-0.5l-3.4-10.1c-0.1-0.3-0.4-0.5-0.7-0.5h-13c-0.4,0-0.6,0.2-0.7,0.5L1151.3,575.3z M1166.2,557.3
			c0.3,0,0.5-0.1,0.6-0.3c0.1-0.2,0.2-0.4,0.1-0.6l-2.8-10c-0.2-0.8-0.5-1.8-0.9-2.9c-0.4-1.3-0.7-2.2-0.9-2.7
			c-0.1-0.4-0.4-0.5-0.7-0.5s-0.6,0.2-0.7,0.5c-0.7,2.4-1.3,4.3-1.6,5.6l-2.7,10c-0.1,0.2,0,0.4,0.1,0.6c0.1,0.2,0.3,0.3,0.6,0.3
			H1166.2z"/>
		<path class="st0" d="M1197.7,532.6v35.1h19.6l-1.9,8.2h-28.9v-43.3H1197.7z"/>
		<path class="st0" d="M1250.4,532.6l-1.9,8h-17.7v6.3h17.7v8h-17.7v13h19.5v8h-30.7v-43.3H1250.4z"/>
		<path class="st0" d="M1274.9,540.2c-2.6-0.8-5-0.8-7.2,0.1c-1.8,0.7-2.6,1.9-2.6,3.5c0,0.8,0.5,1.7,1.5,2.5
			c1.2,1.1,3.2,2.2,5.8,3.3c3.9,1.7,6.8,3.3,8.9,4.8c2.7,2,4.4,4.1,5,6.3c1.1,3.9,0.1,7.4-2.8,10.4c-2.3,2.3-5.4,3.8-9.4,4.3
			c-5.6,0.8-11,0.2-16.3-1.7c-1.6-0.6-3.1-1.4-4.5-2.5c-0.3-0.2-0.3-0.4-0.2-0.6c1.8-2.7,3.4-5.1,4.9-7.2c0.2-0.2,0.4-0.3,0.7-0.1
			c3.1,2,5.9,3.3,8.4,3.9c1.7,0.4,3.2,0.5,4.4,0.1c1.9-0.5,3-1.5,3.4-3.2c0.2-1,0-1.9-0.7-2.7c-0.9-1-2.4-2.1-4.4-3.1
			c-0.5-0.3-1.8-0.9-4-2c-1.6-0.8-2.9-1.5-3.9-2.1c-2.6-1.5-4.5-2.9-5.8-4.2c-2.1-2.1-3-4.6-2.8-7.5c0.2-2.8,1.6-5.2,4-7
			c2.4-1.8,5.3-2.9,8.6-3.4c5-0.7,9.6-0.3,13.9,1.1c0.7,0.2,1.3,0.5,1.9,0.8c0.3,0.1,0.3,0.3,0.3,0.5c-0.4,1.2-1.4,3.6-2.8,7.3
			C1277.4,541.2,1275.9,540.6,1274.9,540.2z"/>
		<path class="st0" d="M1316,575.9v-14.2l-15.6-29.2h12.8c5.1,12.4,8,19.5,8.8,21.4l8.8-21.4h12.5l-16.2,28.8v14.5H1316z"/>
		<path class="st0" d="M1365.4,575.3c-0.1,0.3-0.4,0.5-0.7,0.5h-9.9c-0.3,0-0.5-0.1-0.6-0.3c-0.1-0.2-0.2-0.4-0.1-0.6l14.5-41.9
			c0.1-0.3,0.4-0.5,0.7-0.5h13.5c0.4,0,0.6,0.2,0.7,0.5l14.9,41.9c0.1,0.2,0,0.4-0.1,0.6c-0.1,0.2-0.4,0.3-0.6,0.3h-10.5
			c-0.4,0-0.6-0.2-0.7-0.5l-3.4-10.1c-0.1-0.3-0.4-0.5-0.7-0.5h-13c-0.4,0-0.6,0.2-0.7,0.5L1365.4,575.3z M1380.3,557.3
			c0.3,0,0.5-0.1,0.6-0.3c0.1-0.2,0.2-0.4,0.1-0.6l-2.8-10c-0.2-0.8-0.5-1.8-0.9-2.9c-0.4-1.3-0.7-2.2-0.9-2.7
			c-0.1-0.4-0.4-0.5-0.7-0.5s-0.6,0.2-0.7,0.5c-0.7,2.4-1.3,4.3-1.6,5.6l-2.7,10c-0.1,0.2,0,0.4,0.1,0.6c0.1,0.2,0.3,0.3,0.6,0.3
			H1380.3z"/>
		<path class="st0" d="M1431.3,575.5c-1.7,0.3-3.5,0.5-5.4,0.6c-0.5,0-0.9,0.1-1.1,0.1c-0.1,0-0.2,0-0.3,0h-0.6c-0.1,0-0.2,0-0.3,0
			c-0.2,0-0.6,0-1.1-0.1c-7.6-0.4-13.5-2.5-17.7-6.6c-4-3.8-6-8.7-6-14.6c0-6.5,2.3-11.8,6.8-15.8c4.3-3.8,9.9-6,16.9-6.6
			c0.7-0.1,1.3-0.1,1.6-0.1c0.4,0,0.9,0,1.7,0.1c1.8,0.2,3.6,0.4,5.4,0.8v8.4c-2.2-1.3-4.5-2-7-2c-3.9,0-7.1,1.4-9.9,4.2
			c-2.7,2.8-4.1,6.3-4.1,10.3c0,4,1.4,7.5,4.1,10.3c2.7,2.8,6,4.3,9.9,4.3c2.5,0,4.9-0.7,7-2V575.5z"/>
		<path class="st0" d="M1465.3,532.6l-1.9,8h-17.7v6.3h17.7v8h-17.7v13h19.5v8h-30.7v-43.3H1465.3z"/>
		<path class="st0" d="M1471,575.9v-43.2h18.3c0.6,0,1.3,0,2,0.2h0.3v0c3.6,0.5,6.6,2.1,9,4.7c2.4,2.6,3.6,5.7,3.6,9.2
			c0,2.7-0.8,5.3-2.3,7.5c-1.5,2.2-3.6,4-6.1,5.1l11,16.4h-11.1l-10.2-14.9h-3.6v14.9H1471z M1481.9,553.2h5.4
			c1.8,0,3.4-0.6,4.7-1.9c1.3-1.3,1.9-2.9,1.9-4.7c0-1.8-0.6-3.4-1.9-4.7c-1.3-1.3-2.9-1.9-4.7-1.9h-5.4V553.2z"/>
		<path class="st0" d="M1533.4,531.6c6.9,0.6,12.5,2.8,16.8,6.7c4.5,4.1,6.8,9.5,6.8,16.1c0,6.1-2,11.1-6,15
			c-4.2,4.1-10.1,6.3-17.7,6.7c-0.5,0-0.9,0.1-1.1,0.1c-0.1,0-0.2,0-0.3,0h-0.6c-0.1,0-0.2,0-0.3,0c-0.2,0-0.6,0-1.1-0.1
			c-7.6-0.4-13.5-2.6-17.7-6.7c-4-3.9-6-8.9-6-15c0-6.6,2.3-12,6.8-16.1c4.3-3.9,9.9-6.1,16.9-6.7c0.7-0.1,1.3-0.1,1.6-0.1
			C1532.1,531.4,1532.7,531.5,1533.4,531.6z M1531.8,568.6c3.9,0,7.2-1.4,9.9-4.3c2.7-2.9,4.1-6.4,4.1-10.5c0-4.1-1.4-7.6-4.1-10.5
			c-2.7-2.9-6-4.3-9.9-4.3c-3.9,0-7.1,1.4-9.9,4.3c-2.7,2.9-4.1,6.4-4.1,10.5c0,4.1,1.4,7.6,4.1,10.5
			C1524.6,567.2,1527.9,568.6,1531.8,568.6z"/>
		<path class="st0" d="M1581.4,540.2c-2.6-0.8-5-0.8-7.2,0.1c-1.8,0.7-2.6,1.9-2.6,3.5c0,0.8,0.5,1.7,1.5,2.5
			c1.2,1.1,3.2,2.2,5.8,3.3c3.9,1.7,6.8,3.3,8.9,4.8c2.7,2,4.4,4.1,5,6.3c1.1,3.9,0.1,7.4-2.8,10.4c-2.3,2.3-5.4,3.8-9.4,4.3
			c-5.6,0.8-11,0.2-16.3-1.7c-1.6-0.6-3.1-1.4-4.5-2.5c-0.3-0.2-0.3-0.4-0.2-0.6c1.8-2.7,3.4-5.1,4.9-7.2c0.2-0.2,0.4-0.3,0.7-0.1
			c3.1,2,5.9,3.3,8.4,3.9c1.7,0.4,3.2,0.5,4.4,0.1c1.9-0.5,3-1.5,3.4-3.2c0.2-1,0-1.9-0.7-2.7c-0.9-1-2.4-2.1-4.4-3.1
			c-0.5-0.3-1.8-0.9-4-2c-1.6-0.8-2.9-1.5-3.9-2.1c-2.6-1.5-4.5-2.9-5.8-4.2c-2.1-2.1-3-4.6-2.8-7.5c0.2-2.8,1.6-5.2,4-7
			c2.4-1.8,5.3-2.9,8.6-3.4c5-0.7,9.6-0.3,13.9,1.1c0.7,0.2,1.3,0.5,1.9,0.8c0.3,0.1,0.3,0.3,0.3,0.5c-0.4,1.2-1.4,3.6-2.8,7.3
			C1583.8,541.2,1582.4,540.6,1581.4,540.2z"/>
		<path class="st0" d="M796.4,622.4c-2.6-0.8-5-0.8-7.2,0.1c-1.8,0.7-2.6,1.9-2.6,3.5c0,0.8,0.5,1.7,1.5,2.5
			c1.2,1.1,3.2,2.2,5.8,3.3c3.9,1.7,6.8,3.3,8.9,4.8c2.7,2,4.4,4.1,5,6.3c1.1,3.9,0.1,7.4-2.8,10.4c-2.3,2.3-5.4,3.8-9.4,4.3
			c-5.6,0.8-11,0.2-16.3-1.7c-1.6-0.6-3.1-1.4-4.5-2.5c-0.3-0.2-0.3-0.4-0.2-0.6c1.8-2.7,3.4-5.1,4.9-7.2c0.2-0.2,0.4-0.3,0.7-0.1
			c3.1,2,5.9,3.3,8.4,3.9c1.7,0.4,3.2,0.5,4.4,0.1c1.9-0.5,3-1.5,3.4-3.2c0.2-1,0-1.9-0.7-2.7c-0.9-1-2.4-2.1-4.4-3.1
			c-0.5-0.3-1.8-0.9-4-2c-1.6-0.8-2.9-1.5-3.9-2.1c-2.6-1.5-4.5-2.9-5.8-4.2c-2.1-2.1-3-4.6-2.8-7.5c0.2-2.8,1.6-5.2,4-7
			c2.4-1.8,5.3-2.9,8.6-3.4c5-0.7,9.6-0.3,13.9,1.1c0.7,0.2,1.3,0.5,1.9,0.8c0.3,0.1,0.3,0.3,0.3,0.5c-0.4,1.2-1.4,3.6-2.8,7.3
			C798.8,623.3,797.4,622.7,796.4,622.4z"/>
		<path class="st0" d="M823.5,648.1c1.3,1.2,1.9,2.7,1.9,4.4c0,1.7-0.6,3.2-1.9,4.4c-1.3,1.2-2.9,1.8-4.7,1.8
			c-1.8,0-3.4-0.6-4.7-1.8c-1.3-1.2-1.9-2.7-1.9-4.4c0-1.7,0.6-3.2,1.9-4.4c1.3-1.2,2.9-1.8,4.7-1.8
			C820.6,646.3,822.2,646.9,823.5,648.1z"/>
		<path class="st0" d="M837.5,657.4c-0.1,0.3-0.4,0.5-0.7,0.5h-9.9c-0.3,0-0.5-0.1-0.6-0.3c-0.1-0.2-0.2-0.4-0.1-0.6l14.5-41.9
			c0.1-0.3,0.4-0.5,0.7-0.5h13.5c0.4,0,0.6,0.2,0.7,0.5l14.9,41.9c0.1,0.2,0,0.4-0.1,0.6c-0.1,0.2-0.4,0.3-0.6,0.3h-10.5
			c-0.4,0-0.6-0.2-0.7-0.5l-3.4-10.1c-0.1-0.3-0.4-0.5-0.7-0.5h-13c-0.4,0-0.6,0.2-0.7,0.5L837.5,657.4z M852.3,639.5
			c0.3,0,0.5-0.1,0.6-0.3c0.1-0.2,0.2-0.4,0.1-0.6l-2.8-10c-0.2-0.8-0.5-1.8-0.9-2.9c-0.4-1.3-0.7-2.2-0.9-2.7
			c-0.1-0.4-0.4-0.5-0.7-0.5s-0.6,0.2-0.7,0.5c-0.7,2.4-1.3,4.3-1.6,5.6l-2.7,10c-0.1,0.2,0,0.4,0.1,0.6c0.1,0.2,0.3,0.3,0.6,0.3
			H852.3z"/>
		<path class="st0" d="M883.3,648.1c1.3,1.2,1.9,2.7,1.9,4.4c0,1.7-0.6,3.2-1.9,4.4c-1.3,1.2-2.9,1.8-4.7,1.8
			c-1.8,0-3.4-0.6-4.7-1.8c-1.3-1.2-1.9-2.7-1.9-4.4c0-1.7,0.6-3.2,1.9-4.4c1.3-1.2,2.9-1.8,4.7-1.8
			C880.5,646.3,882.1,646.9,883.3,648.1z"/>
		<path class="st0" d="M917.2,615c8.3,0,15.1,1.9,20.4,5.8c5.6,4.1,8.4,9.7,8.4,16.7c0,6.3-2.3,11.3-7,15.2
			c-5,4.1-11.9,6.1-20.7,6.1c-2,0-7-0.2-15-0.6v-42.4C910.4,615.2,915,615,917.2,615z M918.2,651.1c4.7,0,8.7-1.4,12-4.2
			c3.3-2.8,5-6.1,5-10s-1.7-7.3-5-10.1c-3.3-2.8-7.3-4.2-12-4.2h-3.7v28.5H918.2z"/>
		<path class="st0" d="M980.3,614.7l-1.9,8h-17.7v6.3h17.7v8h-17.7v13h19.5v8h-30.7v-43.3H980.3z"/>
		<path class="st0" d="M1029.4,657.6c-1.7,0.3-3.5,0.5-5.4,0.6c-0.5,0-0.9,0.1-1.1,0.1c-0.1,0-0.2,0-0.3,0h-0.6c-0.1,0-0.2,0-0.3,0
			c-0.2,0-0.6,0-1.1-0.1c-7.6-0.4-13.5-2.5-17.7-6.6c-4-3.8-6-8.7-6-14.6c0-6.5,2.3-11.8,6.8-15.8c4.3-3.8,9.9-6,16.9-6.6
			c0.7-0.1,1.3-0.1,1.6-0.1c0.4,0,0.9,0,1.7,0.1c1.8,0.2,3.6,0.4,5.4,0.8v8.4c-2.2-1.3-4.5-2-7-2c-3.9,0-7.1,1.4-9.9,4.2
			c-2.7,2.8-4.1,6.3-4.1,10.3c0,4,1.4,7.5,4.1,10.3c2.7,2.8,6,4.3,9.9,4.3c2.5,0,4.9-0.7,7-2V657.6z"/>
		<path class="st0" d="M1044.2,648.1c1.3,1.2,1.9,2.7,1.9,4.4c0,1.7-0.6,3.2-1.9,4.4c-1.3,1.2-2.9,1.8-4.7,1.8
			c-1.8,0-3.4-0.6-4.7-1.8c-1.3-1.2-1.9-2.7-1.9-4.4c0-1.7,0.6-3.2,1.9-4.4c1.3-1.2,2.9-1.8,4.7-1.8
			C1041.3,646.3,1042.9,646.9,1044.2,648.1z"/>
		<path class="st0" d="M1062.6,658l-15.8-43.3h12.2l10.6,32.9l10.8-32.9h11.8l-16.6,43.3H1062.6z"/>
		<path class="st0" d="M1105.1,648.1c1.3,1.2,1.9,2.7,1.9,4.4c0,1.7-0.6,3.2-1.9,4.4c-1.3,1.2-2.9,1.8-4.7,1.8
			c-1.8,0-3.4-0.6-4.7-1.8c-1.3-1.2-1.9-2.7-1.9-4.4c0-1.7,0.6-3.2,1.9-4.4c1.3-1.2,2.9-1.8,4.7-1.8
			C1102.2,646.3,1103.8,646.9,1105.1,648.1z"/>
	</g>
	<g>
		<path class="st7" d="M282.8,536.5h11.1v41.4h-11.1V536.5z"/>
		<path class="st7" d="M342,536.5v41.2h-13.7l-18.9-27.6v27.6h-11v-41.2h11.5l21.1,27.7v-27.7H342z"/>
		<path class="st7" d="M360.5,536.8c8.3,0,15.1,1.8,20.4,5.5c5.6,3.9,8.4,9.2,8.4,15.9c0,6-2.3,10.8-7,14.5
			c-5,3.9-11.9,5.8-20.7,5.8c-2,0-7-0.2-15-0.5v-40.5C353.7,537,358.3,536.8,360.5,536.8z M361.5,571.3c4.7,0,8.7-1.3,12-4
			c3.3-2.6,5-5.8,5-9.6c0-3.8-1.7-7-5-9.6c-3.3-2.6-7.3-4-12-4h-3.7v27.2H361.5z"/>
		<path class="st7" d="M433.5,536.7v24.4c0,4.9-1.9,9.1-5.7,12.5c-3.9,3.4-8.5,5.2-13.9,5.2h-0.3c-5.6,0-10.4-1.8-14.3-5.3
			c-4-3.6-5.9-7.9-5.9-12.9v-23.8h11.1V562c0,2.3,0.9,4.2,2.7,5.8c1.8,1.6,3.9,2.4,6.4,2.4c2.5,0,4.6-0.8,6.4-2.4
			c1.8-1.6,2.7-3.5,2.7-5.8v-25.3H433.5z"/>
		<path class="st7" d="M457.7,543.9c-2.6-0.8-5-0.8-7.2,0.1c-1.8,0.7-2.6,1.8-2.6,3.3c0,0.8,0.5,1.6,1.5,2.4c1.2,1,3.2,2.1,5.8,3.2
			c3.9,1.6,6.8,3.1,8.9,4.6c2.7,1.9,4.4,3.9,5,6c1.1,3.7,0.1,7-2.8,9.9c-2.3,2.2-5.4,3.6-9.4,4.1c-5.6,0.8-11,0.2-16.3-1.6
			c-1.6-0.6-3.1-1.4-4.5-2.4c-0.3-0.2-0.3-0.4-0.2-0.6c1.8-2.5,3.4-4.9,4.9-6.9c0.2-0.2,0.4-0.3,0.7-0.1c3.1,1.9,5.9,3.1,8.4,3.7
			c1.7,0.4,3.2,0.4,4.4,0.1c1.9-0.5,3-1.5,3.4-3c0.2-0.9,0-1.8-0.7-2.6c-0.9-1-2.4-2-4.4-3c-0.5-0.3-1.8-0.9-4-1.9
			c-1.6-0.8-2.9-1.4-3.9-2c-2.6-1.5-4.5-2.8-5.8-4.1c-2.1-2-3-4.4-2.8-7.1c0.2-2.7,1.6-4.9,4-6.7c2.4-1.7,5.3-2.8,8.6-3.2
			c5-0.7,9.6-0.3,13.9,1.1c0.7,0.2,1.3,0.5,1.9,0.8c0.3,0.1,0.3,0.3,0.3,0.5c-0.4,1.1-1.4,3.4-2.8,7
			C460.2,544.8,458.8,544.2,457.7,543.9z"/>
		<path class="st7" d="M509,536.5l-1.9,6.8h-11.4v34.6h-11.4v-34.6h-11.5l-1.9-6.8H509z"/>
		<path class="st7" d="M513.3,577.9v-41.2h18.3c0.6,0,1.3,0,2,0.1h0.3v0c3.6,0.5,6.6,2,9,4.5c2.4,2.5,3.6,5.5,3.6,8.8
			c0,2.6-0.8,5-2.3,7.2c-1.5,2.1-3.6,3.8-6.1,4.9l11,15.6H538l-10.2-14.2h-3.6v14.2H513.3z M524.2,556.2h5.4c1.8,0,3.4-0.6,4.7-1.8
			c1.3-1.2,1.9-2.7,1.9-4.5c0-1.7-0.6-3.2-1.9-4.5c-1.3-1.2-2.9-1.8-4.7-1.8h-5.4V556.2z"/>
		<path class="st7" d="M551.3,536.5h11.1v41.4h-11.1V536.5z"/>
		<path class="st7" d="M575.6,577.3c-0.1,0.3-0.4,0.5-0.7,0.5H565c-0.3,0-0.5-0.1-0.6-0.3c-0.1-0.2-0.2-0.4-0.1-0.6l14.5-40
			c0.1-0.3,0.4-0.5,0.7-0.5h13.5c0.4,0,0.6,0.2,0.7,0.5l14.9,40c0.1,0.2,0,0.4-0.1,0.6c-0.1,0.2-0.4,0.3-0.6,0.3h-10.5
			c-0.4,0-0.6-0.2-0.7-0.5l-3.4-9.7c-0.1-0.3-0.4-0.5-0.7-0.5h-13c-0.4,0-0.6,0.2-0.7,0.5L575.6,577.3z M590.5,560.2
			c0.3,0,0.5-0.1,0.6-0.3c0.1-0.2,0.2-0.4,0.1-0.6l-2.8-9.6c-0.2-0.8-0.5-1.7-0.9-2.8c-0.4-1.3-0.7-2.1-0.9-2.6
			c-0.1-0.3-0.4-0.5-0.7-0.5c-0.4,0-0.6,0.2-0.7,0.5c-0.7,2.3-1.3,4.1-1.6,5.4l-2.7,9.6c-0.1,0.2,0,0.4,0.1,0.6
			c0.1,0.2,0.3,0.3,0.6,0.3H590.5z"/>
		<path class="st7" d="M665.1,576c-2.5,0.7-5.2,1.3-8.3,1.7c-2.6,0.5-5.4,0.7-8.4,0.7c-8.3,0-14.7-2-19.3-5.9
			c-4.3-3.7-6.5-8.7-6.5-14.8c0-6.8,2.6-12.3,7.9-16.3c4.9-3.8,11.3-5.7,19.1-5.7c4.8,0,9.8,0.6,15,1.8l-2.8,6.7
			c-7-1.6-12.5-1.9-16.5-1.1c-7.7,1.6-11.5,6.3-11.5,14c0,4,1.4,7.4,4.2,10.1c2.9,2.8,6.4,4.2,10.8,4.2h5.6c0,0,0.1,0,0.1,0
			c0,0,0.1,0,0.1,0v-10.6h-7.6l-1.9-6.4h20.3V576z"/>
		<path class="st7" d="M700.3,536.5l-1.9,7.7h-17.7v6.1h17.7v7.6h-17.7v12.4h19.5v7.7h-30.7v-41.4H700.3z"/>
		<path class="st7" d="M747.2,536.5v41.2h-13.7l-18.9-27.6v27.6h-11v-41.2h11.5l21.1,27.7v-27.7H747.2z"/>
		<path class="st7" d="M782,536.5l-1.9,7.7h-17.7v6.1h17.7v7.6h-17.7v12.4H782v7.7h-30.7v-41.4H782z"/>
		<path class="st7" d="M787.7,577.9v-41.2H806c0.6,0,1.3,0,2,0.1h0.3v0c3.6,0.5,6.6,2,9,4.5c2.4,2.5,3.6,5.5,3.6,8.8
			c0,2.6-0.8,5-2.3,7.2c-1.5,2.1-3.6,3.8-6.1,4.9l11,15.6h-11.1l-10.2-14.2h-3.6v14.2H787.7z M798.6,556.2h5.4
			c1.8,0,3.4-0.6,4.7-1.8c1.3-1.2,1.9-2.7,1.9-4.5c0-1.7-0.6-3.2-1.9-4.5c-1.3-1.2-2.9-1.8-4.7-1.8h-5.4V556.2z"/>
		<path class="st7" d="M831.9,577.3c-0.1,0.3-0.4,0.5-0.7,0.5h-9.9c-0.3,0-0.5-0.1-0.6-0.3c-0.1-0.2-0.2-0.4-0.1-0.6l14.5-40
			c0.1-0.3,0.4-0.5,0.7-0.5h13.5c0.4,0,0.6,0.2,0.7,0.5l14.9,40c0.1,0.2,0,0.4-0.1,0.6c-0.1,0.2-0.4,0.3-0.6,0.3h-10.5
			c-0.4,0-0.6-0.2-0.7-0.5l-3.4-9.7c-0.1-0.3-0.4-0.5-0.7-0.5h-13c-0.4,0-0.6,0.2-0.7,0.5L831.9,577.3z M846.8,560.2
			c0.3,0,0.5-0.1,0.6-0.3c0.1-0.2,0.2-0.4,0.1-0.6l-2.8-9.6c-0.2-0.8-0.5-1.7-0.9-2.8c-0.4-1.3-0.7-2.1-0.9-2.6
			c-0.1-0.3-0.4-0.5-0.7-0.5s-0.6,0.2-0.7,0.5c-0.7,2.3-1.3,4.1-1.6,5.4l-2.7,9.6c-0.1,0.2,0,0.4,0.1,0.6c0.1,0.2,0.3,0.3,0.6,0.3
			H846.8z"/>
		<path class="st7" d="M878.3,536.5v33.5h19.6l-1.9,7.9h-28.9v-41.4H878.3z"/>
		<path class="st7" d="M928,536.8c8.3,0,15.1,1.8,20.4,5.5c5.6,3.9,8.4,9.2,8.4,15.9c0,6-2.3,10.8-7,14.5c-5,3.9-11.9,5.8-20.7,5.8
			c-2,0-7-0.2-15-0.5v-40.5C921.2,537,925.8,536.8,928,536.8z M928.9,571.3c4.7,0,8.7-1.3,12-4c3.3-2.6,5-5.8,5-9.6
			c0-3.8-1.7-7-5-9.6c-3.3-2.6-7.3-4-12-4h-3.7v27.2H928.9z"/>
		<path class="st7" d="M991.1,536.5l-1.9,7.7h-17.7v6.1h17.7v7.6h-17.7v12.4h19.5v7.7h-30.7v-41.4H991.1z"/>
		<path class="st7" d="M1057.9,536.5v41.2h-9.9v-30.2l-9.6,30.2h-12l-9.6-30.2v30.2h-9.9v-41.2h16l9.6,30l9.5-30H1057.9z"/>
		<path class="st7" d="M1091.8,536.5l-1.9,7.7h-17.7v6.1h17.7v7.6h-17.7v12.4h19.5v7.7h-30.7v-41.4H1091.8z"/>
		<path class="st7" d="M1131.6,536.5l-1.9,6.8h-11.4v34.6h-11.4v-34.6h-11.5l-1.9-6.8H1131.6z"/>
		<path class="st7" d="M1142.3,577.3c-0.1,0.3-0.4,0.5-0.7,0.5h-9.9c-0.3,0-0.5-0.1-0.6-0.3c-0.1-0.2-0.2-0.4-0.1-0.6l14.5-40
			c0.1-0.3,0.4-0.5,0.7-0.5h13.5c0.4,0,0.6,0.2,0.7,0.5l14.9,40c0.1,0.2,0,0.4-0.1,0.6c-0.1,0.2-0.4,0.3-0.6,0.3h-10.5
			c-0.4,0-0.6-0.2-0.7-0.5l-3.4-9.7c-0.1-0.3-0.4-0.5-0.7-0.5h-13c-0.4,0-0.6,0.2-0.7,0.5L1142.3,577.3z M1157.2,560.2
			c0.3,0,0.5-0.1,0.6-0.3c0.1-0.2,0.2-0.4,0.1-0.6l-2.8-9.6c-0.2-0.8-0.5-1.7-0.9-2.8c-0.4-1.3-0.7-2.1-0.9-2.6
			c-0.1-0.3-0.4-0.5-0.7-0.5s-0.6,0.2-0.7,0.5c-0.7,2.3-1.3,4.1-1.6,5.4l-2.7,9.6c-0.1,0.2,0,0.4,0.1,0.6c0.1,0.2,0.3,0.3,0.6,0.3
			H1157.2z"/>
		<path class="st7" d="M1188.7,536.5v33.5h19.6l-1.9,7.9h-28.9v-41.4H1188.7z"/>
		<path class="st7" d="M1241.4,536.5l-1.9,7.7h-17.7v6.1h17.7v7.6h-17.7v12.4h19.5v7.7h-30.7v-41.4H1241.4z"/>
		<path class="st7" d="M1265.9,543.9c-2.6-0.8-5-0.8-7.2,0.1c-1.8,0.7-2.6,1.8-2.6,3.3c0,0.8,0.5,1.6,1.5,2.4c1.2,1,3.2,2.1,5.8,3.2
			c3.9,1.6,6.8,3.1,8.9,4.6c2.7,1.9,4.4,3.9,5,6c1.1,3.7,0.1,7-2.8,9.9c-2.3,2.2-5.4,3.6-9.4,4.1c-5.6,0.8-11,0.2-16.3-1.6
			c-1.6-0.6-3.1-1.4-4.5-2.4c-0.3-0.2-0.3-0.4-0.2-0.6c1.8-2.5,3.4-4.9,4.9-6.9c0.2-0.2,0.4-0.3,0.7-0.1c3.1,1.9,5.9,3.1,8.4,3.7
			c1.7,0.4,3.2,0.4,4.4,0.1c1.9-0.5,3-1.5,3.4-3c0.2-0.9,0-1.8-0.7-2.6c-0.9-1-2.4-2-4.4-3c-0.5-0.3-1.8-0.9-4-1.9
			c-1.6-0.8-2.9-1.4-3.9-2c-2.6-1.5-4.5-2.8-5.8-4.1c-2.1-2-3-4.4-2.8-7.1c0.2-2.7,1.6-4.9,4-6.7c2.4-1.7,5.3-2.8,8.6-3.2
			c5-0.7,9.6-0.3,13.9,1.1c0.7,0.2,1.3,0.5,1.9,0.8c0.3,0.1,0.3,0.3,0.3,0.5c-0.4,1.1-1.4,3.4-2.8,7
			C1268.4,544.8,1267,544.2,1265.9,543.9z"/>
		<path class="st7" d="M1307.1,577.9v-13.5l-15.6-27.9h12.8c5.1,11.8,8,18.6,8.8,20.4l8.8-20.4h12.5l-16.2,27.6v13.8H1307.1z"/>
		<path class="st7" d="M1356.4,577.3c-0.1,0.3-0.4,0.5-0.7,0.5h-9.9c-0.3,0-0.5-0.1-0.6-0.3c-0.1-0.2-0.2-0.4-0.1-0.6l14.5-40
			c0.1-0.3,0.4-0.5,0.7-0.5h13.5c0.4,0,0.6,0.2,0.7,0.5l14.9,40c0.1,0.2,0,0.4-0.1,0.6c-0.1,0.2-0.4,0.3-0.6,0.3h-10.5
			c-0.4,0-0.6-0.2-0.7-0.5l-3.4-9.7c-0.1-0.3-0.4-0.5-0.7-0.5h-13c-0.4,0-0.6,0.2-0.7,0.5L1356.4,577.3z M1371.3,560.2
			c0.3,0,0.5-0.1,0.6-0.3c0.1-0.2,0.2-0.4,0.1-0.6l-2.8-9.6c-0.2-0.8-0.5-1.7-0.9-2.8c-0.4-1.3-0.7-2.1-0.9-2.6
			c-0.1-0.3-0.4-0.5-0.7-0.5s-0.6,0.2-0.7,0.5c-0.7,2.3-1.3,4.1-1.6,5.4l-2.7,9.6c-0.1,0.2,0,0.4,0.1,0.6c0.1,0.2,0.3,0.3,0.6,0.3
			H1371.3z"/>
		<path class="st7" d="M1422.3,577.5c-1.7,0.3-3.5,0.5-5.4,0.6c-0.5,0-0.9,0.1-1.1,0.1c-0.1,0-0.2,0-0.3,0h-0.6c-0.1,0-0.2,0-0.3,0
			c-0.2,0-0.6,0-1.1-0.1c-7.6-0.3-13.5-2.4-17.7-6.3c-4-3.6-6-8.3-6-14c0-6.2,2.3-11.2,6.8-15.1c4.3-3.6,9.9-5.7,16.9-6.3
			c0.7-0.1,1.3-0.1,1.6-0.1c0.4,0,0.9,0,1.7,0.1c1.8,0.2,3.6,0.4,5.4,0.8v8c-2.2-1.3-4.5-1.9-7-1.9c-3.9,0-7.1,1.4-9.9,4.1
			c-2.7,2.7-4.1,6-4.1,9.8c0,3.8,1.4,7.1,4.1,9.8c2.7,2.7,6,4.1,9.9,4.1c2.5,0,4.9-0.6,7-1.9V577.5z"/>
		<path class="st7" d="M1456.3,536.5l-1.9,7.7h-17.7v6.1h17.7v7.6h-17.7v12.4h19.5v7.7h-30.7v-41.4H1456.3z"/>
		<path class="st7" d="M1462,577.9v-41.2h18.3c0.6,0,1.3,0,2,0.1h0.3v0c3.6,0.5,6.6,2,9,4.5c2.4,2.5,3.6,5.5,3.6,8.8
			c0,2.6-0.8,5-2.3,7.2c-1.5,2.1-3.6,3.8-6.1,4.9l11,15.6h-11.1l-10.2-14.2h-3.6v14.2H1462z M1472.9,556.2h5.4
			c1.8,0,3.4-0.6,4.7-1.8c1.3-1.2,1.9-2.7,1.9-4.5c0-1.7-0.6-3.2-1.9-4.5c-1.3-1.2-2.9-1.8-4.7-1.8h-5.4V556.2z"/>
		<path class="st7" d="M1524.4,535.6c6.9,0.6,12.5,2.7,16.8,6.4c4.5,3.9,6.8,9.1,6.8,15.4c0,5.8-2,10.6-6,14.3
			c-4.2,3.9-10.1,6-17.7,6.4c-0.5,0-0.9,0.1-1.1,0.1c-0.1,0-0.2,0-0.3,0h-0.6c-0.1,0-0.2,0-0.3,0c-0.2,0-0.6,0-1.1-0.1
			c-7.6-0.4-13.5-2.5-17.7-6.4c-4-3.7-6-8.5-6-14.3c0-6.3,2.3-11.4,6.8-15.4c4.3-3.7,9.9-5.9,16.9-6.4c0.7-0.1,1.3-0.1,1.6-0.1
			C1523.1,535.5,1523.7,535.5,1524.4,535.6z M1522.8,571c3.9,0,7.2-1.4,9.9-4.1c2.7-2.8,4.1-6.1,4.1-10c0-3.9-1.4-7.3-4.1-10.1
			c-2.7-2.8-6-4.1-9.9-4.1c-3.9,0-7.1,1.4-9.9,4.1c-2.7,2.8-4.1,6.1-4.1,10.1c0,3.9,1.4,7.3,4.1,10
			C1515.6,569.6,1518.9,571,1522.8,571z"/>
		<path class="st7" d="M1572.4,543.9c-2.6-0.8-5-0.8-7.2,0.1c-1.8,0.7-2.6,1.8-2.6,3.3c0,0.8,0.5,1.6,1.5,2.4c1.2,1,3.2,2.1,5.8,3.2
			c3.9,1.6,6.8,3.1,8.9,4.6c2.7,1.9,4.4,3.9,5,6c1.1,3.7,0.1,7-2.8,9.9c-2.3,2.2-5.4,3.6-9.4,4.1c-5.6,0.8-11,0.2-16.3-1.6
			c-1.6-0.6-3.1-1.4-4.5-2.4c-0.3-0.2-0.3-0.4-0.2-0.6c1.8-2.5,3.4-4.9,4.9-6.9c0.2-0.2,0.4-0.3,0.7-0.1c3.1,1.9,5.9,3.1,8.4,3.7
			c1.7,0.4,3.2,0.4,4.4,0.1c1.9-0.5,3-1.5,3.4-3c0.2-0.9,0-1.8-0.7-2.6c-0.9-1-2.4-2-4.4-3c-0.5-0.3-1.8-0.9-4-1.9
			c-1.6-0.8-2.9-1.4-3.9-2c-2.6-1.5-4.5-2.8-5.8-4.1c-2.1-2-3-4.4-2.8-7.1c0.2-2.7,1.6-4.9,4-6.7c2.4-1.7,5.3-2.8,8.6-3.2
			c5-0.7,9.6-0.3,13.9,1.1c0.7,0.2,1.3,0.5,1.9,0.8c0.3,0.1,0.3,0.3,0.3,0.5c-0.4,1.1-1.4,3.4-2.8,7
			C1574.8,544.8,1573.4,544.2,1572.4,543.9z"/>
		<path class="st7" d="M787.4,622.3c-2.6-0.8-5-0.8-7.2,0.1c-1.8,0.7-2.6,1.8-2.6,3.3c0,0.8,0.5,1.6,1.5,2.4c1.2,1,3.2,2.1,5.8,3.2
			c3.9,1.6,6.8,3.1,8.9,4.6c2.7,1.9,4.4,3.9,5,6c1.1,3.7,0.1,7-2.8,9.9c-2.3,2.2-5.4,3.6-9.4,4.1c-5.6,0.8-11,0.2-16.3-1.6
			c-1.6-0.6-3.1-1.4-4.5-2.4c-0.3-0.2-0.3-0.4-0.2-0.6c1.8-2.5,3.4-4.9,4.9-6.9c0.2-0.2,0.4-0.3,0.7-0.1c3.1,1.9,5.9,3.1,8.4,3.7
			c1.7,0.4,3.2,0.4,4.4,0.1c1.9-0.5,3-1.5,3.4-3c0.2-0.9,0-1.8-0.7-2.6c-0.9-1-2.4-2-4.4-3c-0.5-0.3-1.8-0.9-4-1.9
			c-1.6-0.8-2.9-1.4-3.9-2c-2.6-1.5-4.5-2.8-5.8-4.1c-2.1-2-3-4.4-2.8-7.1c0.2-2.7,1.6-4.9,4-6.7c2.4-1.7,5.3-2.8,8.6-3.2
			c5-0.7,9.6-0.3,13.9,1.1c0.7,0.2,1.3,0.5,1.9,0.8c0.3,0.1,0.3,0.3,0.3,0.5c-0.4,1.1-1.4,3.4-2.8,7
			C789.8,623.2,788.4,622.6,787.4,622.3z"/>
		<path class="st7" d="M814.5,646.9c1.3,1.1,1.9,2.5,1.9,4.2c0,1.6-0.6,3-1.9,4.2c-1.3,1.2-2.9,1.7-4.7,1.7c-1.8,0-3.4-0.6-4.7-1.7
			c-1.3-1.2-1.9-2.6-1.9-4.2c0-1.6,0.6-3,1.9-4.2c1.3-1.1,2.9-1.7,4.7-1.7C811.7,645.2,813.2,645.8,814.5,646.9z"/>
		<path class="st7" d="M828.5,655.8c-0.1,0.3-0.4,0.5-0.7,0.5h-9.9c-0.3,0-0.5-0.1-0.6-0.3c-0.1-0.2-0.2-0.4-0.1-0.6l14.5-40
			c0.1-0.3,0.4-0.5,0.7-0.5h13.5c0.4,0,0.6,0.2,0.7,0.5l14.9,40c0.1,0.2,0,0.4-0.1,0.6c-0.1,0.2-0.4,0.3-0.6,0.3h-10.5
			c-0.4,0-0.6-0.2-0.7-0.5l-3.4-9.7c-0.1-0.3-0.4-0.5-0.7-0.5h-13c-0.4,0-0.6,0.2-0.7,0.5L828.5,655.8z M843.4,638.7
			c0.3,0,0.5-0.1,0.6-0.3c0.1-0.2,0.2-0.4,0.1-0.6l-2.8-9.6c-0.2-0.8-0.5-1.7-0.9-2.8c-0.4-1.3-0.7-2.1-0.9-2.6
			c-0.1-0.3-0.4-0.5-0.7-0.5s-0.6,0.2-0.7,0.5c-0.7,2.3-1.3,4.1-1.6,5.4l-2.7,9.6c-0.1,0.2,0,0.4,0.1,0.6c0.1,0.2,0.3,0.3,0.6,0.3
			H843.4z"/>
		<path class="st7" d="M874.4,646.9c1.3,1.1,1.9,2.5,1.9,4.2c0,1.6-0.6,3-1.9,4.2c-1.3,1.2-2.9,1.7-4.7,1.7c-1.8,0-3.4-0.6-4.7-1.7
			c-1.3-1.2-1.9-2.6-1.9-4.2c0-1.6,0.6-3,1.9-4.2c1.3-1.1,2.9-1.7,4.7-1.7C871.5,645.2,873.1,645.8,874.4,646.9z"/>
		<path class="st7" d="M908.2,615.2c8.3,0,15.1,1.8,20.4,5.5c5.6,3.9,8.4,9.2,8.4,15.9c0,6-2.3,10.8-7,14.5
			c-5,3.9-11.9,5.8-20.7,5.8c-2,0-7-0.2-15-0.5V616C901.4,615.5,906,615.2,908.2,615.2z M909.2,649.7c4.7,0,8.7-1.3,12-4
			c3.3-2.6,5-5.8,5-9.6c0-3.8-1.7-7-5-9.6c-3.3-2.6-7.3-4-12-4h-3.7v27.2H909.2z"/>
		<path class="st7" d="M971.3,615l-1.9,7.7h-17.7v6.1h17.7v7.6h-17.7v12.4h19.5v7.7h-30.7V615H971.3z"/>
		<path class="st7" d="M1020.4,656c-1.7,0.3-3.5,0.5-5.4,0.6c-0.5,0-0.9,0.1-1.1,0.1c-0.1,0-0.2,0-0.3,0h-0.6c-0.1,0-0.2,0-0.3,0
			c-0.2,0-0.6,0-1.1-0.1c-7.6-0.3-13.5-2.4-17.7-6.3c-4-3.6-6-8.3-6-14c0-6.2,2.3-11.2,6.8-15.1c4.3-3.6,9.9-5.7,16.9-6.3
			c0.7-0.1,1.3-0.1,1.6-0.1c0.4,0,0.9,0,1.7,0.1c1.8,0.2,3.6,0.4,5.4,0.8v8c-2.2-1.3-4.5-1.9-7-1.9c-3.9,0-7.1,1.4-9.9,4.1
			c-2.7,2.7-4.1,6-4.1,9.8c0,3.8,1.4,7.1,4.1,9.8c2.7,2.7,6,4.1,9.9,4.1c2.5,0,4.9-0.6,7-1.9V656z"/>
		<path class="st7" d="M1035.2,646.9c1.3,1.1,1.9,2.5,1.9,4.2c0,1.6-0.6,3-1.9,4.2c-1.3,1.2-2.9,1.7-4.7,1.7c-1.8,0-3.4-0.6-4.7-1.7
			c-1.3-1.2-1.9-2.6-1.9-4.2c0-1.6,0.6-3,1.9-4.2c1.3-1.1,2.9-1.7,4.7-1.7C1032.4,645.2,1033.9,645.8,1035.2,646.9z"/>
		<path class="st7" d="M1053.6,656.4l-15.8-41.4h12.2l10.6,31.5l10.8-31.5h11.8l-16.6,41.4H1053.6z"/>
		<path class="st7" d="M1096.1,646.9c1.3,1.1,1.9,2.5,1.9,4.2c0,1.6-0.6,3-1.9,4.2c-1.3,1.2-2.9,1.7-4.7,1.7c-1.8,0-3.4-0.6-4.7-1.7
			c-1.3-1.2-1.9-2.6-1.9-4.2c0-1.6,0.6-3,1.9-4.2c1.3-1.1,2.9-1.7,4.7-1.7C1093.2,645.2,1094.8,645.8,1096.1,646.9z"/>
	</g>
</g>
<text transform="matrix(1 0 0 1 502.6747 874.0041)" class="st5 st8 st9">SITIO EN CONSTRUCCIÓN</text>
</svg>
